# MagicaVoxel @ Ephtracy

# group
g farmTileDone

# material
mtllib farmTileDone.mtl
usemtl palette

# normals
vn -1 0 0
vn 1 0 0
vn 0 0 1
vn 0 0 -1
vn 0 -1 0
vn 0 1 0

# texcoords
vt 0.00195312 0.5
vt 0.0136719 0.5
vt 0.0214844 0.5
vt 0.0332031 0.5
vt 0.0371094 0.5

# verts
v -20 0 20
v -20 0 -20
v -20 1 20
v -20 1 -20
v -18 1 17
v -18 1 8
v -18 1 5
v -18 1 -4
v -18 1 -7
v -18 1 -16
v -18 2 17
v -18 2 8
v -18 2 5
v -18 2 -4
v -18 2 -7
v -18 2 -16
v -16 2 13
v -16 2 12
v -16 2 1
v -16 2 -0
v -16 2 -11
v -16 2 -12
v -16 3 13
v -16 3 12
v -16 3 1
v -16 3 -0
v -16 3 -11
v -16 3 -12
v -16 5 13
v -16 5 12
v -16 5 1
v -16 5 -0
v -16 5 -11
v -16 5 -12
v -16 6 13
v -16 6 12
v -16 6 1
v -16 6 -0
v -16 6 -11
v -16 6 -12
v -10 2 13
v -10 2 12
v -10 2 1
v -10 2 -0
v -10 2 -11
v -10 2 -12
v -10 3 13
v -10 3 12
v -10 3 1
v -10 3 -0
v -10 3 -11
v -10 3 -12
v -10 5 13
v -10 5 12
v -10 5 1
v -10 5 -0
v -10 5 -11
v -10 5 -12
v -10 6 13
v -10 6 12
v -10 6 1
v -10 6 -0
v -10 6 -11
v -10 6 -12
v -4 2 13
v -4 2 12
v -4 2 1
v -4 2 -0
v -4 2 -11
v -4 2 -12
v -4 3 13
v -4 3 12
v -4 3 1
v -4 3 -0
v -4 3 -11
v -4 3 -12
v -4 5 13
v -4 5 12
v -4 5 1
v -4 5 -0
v -4 5 -11
v -4 5 -12
v -4 6 13
v -4 6 12
v -4 6 1
v -4 6 -0
v -4 6 -11
v -4 6 -12
v 2 2 13
v 2 2 12
v 2 2 1
v 2 2 -0
v 2 2 -11
v 2 2 -12
v 2 3 13
v 2 3 12
v 2 3 1
v 2 3 -0
v 2 3 -11
v 2 3 -12
v 2 5 13
v 2 5 12
v 2 5 1
v 2 5 -0
v 2 5 -11
v 2 5 -12
v 2 6 13
v 2 6 12
v 2 6 1
v 2 6 -0
v 2 6 -11
v 2 6 -12
v 8 2 13
v 8 2 12
v 8 2 1
v 8 2 -0
v 8 2 -11
v 8 2 -12
v 8 3 13
v 8 3 12
v 8 3 1
v 8 3 -0
v 8 3 -11
v 8 3 -12
v 8 5 13
v 8 5 12
v 8 5 1
v 8 5 -0
v 8 5 -11
v 8 5 -12
v 8 6 13
v 8 6 12
v 8 6 1
v 8 6 -0
v 8 6 -11
v 8 6 -12
v 14 2 13
v 14 2 12
v 14 2 1
v 14 2 -0
v 14 2 -11
v 14 2 -12
v 14 3 13
v 14 3 12
v 14 3 1
v 14 3 -0
v 14 3 -11
v 14 3 -12
v 14 5 13
v 14 5 12
v 14 5 1
v 14 5 -0
v 14 5 -11
v 14 5 -12
v 14 6 13
v 14 6 12
v 14 6 1
v 14 6 -0
v 14 6 -11
v 14 6 -12
v -15 2 13
v -15 2 12
v -15 2 1
v -15 2 -0
v -15 2 -11
v -15 2 -12
v -15 3 13
v -15 3 12
v -15 3 1
v -15 3 -0
v -15 3 -11
v -15 3 -12
v -15 5 13
v -15 5 12
v -15 5 1
v -15 5 -0
v -15 5 -11
v -15 5 -12
v -15 6 13
v -15 6 12
v -15 6 1
v -15 6 -0
v -15 6 -11
v -15 6 -12
v -9 2 13
v -9 2 12
v -9 2 1
v -9 2 -0
v -9 2 -11
v -9 2 -12
v -9 3 13
v -9 3 12
v -9 3 1
v -9 3 -0
v -9 3 -11
v -9 3 -12
v -9 5 13
v -9 5 12
v -9 5 1
v -9 5 -0
v -9 5 -11
v -9 5 -12
v -9 6 13
v -9 6 12
v -9 6 1
v -9 6 -0
v -9 6 -11
v -9 6 -12
v -3 2 13
v -3 2 12
v -3 2 1
v -3 2 -0
v -3 2 -11
v -3 2 -12
v -3 3 13
v -3 3 12
v -3 3 1
v -3 3 -0
v -3 3 -11
v -3 3 -12
v -3 5 13
v -3 5 12
v -3 5 1
v -3 5 -0
v -3 5 -11
v -3 5 -12
v -3 6 13
v -3 6 12
v -3 6 1
v -3 6 -0
v -3 6 -11
v -3 6 -12
v 3 2 13
v 3 2 12
v 3 2 1
v 3 2 -0
v 3 2 -11
v 3 2 -12
v 3 3 13
v 3 3 12
v 3 3 1
v 3 3 -0
v 3 3 -11
v 3 3 -12
v 3 5 13
v 3 5 12
v 3 5 1
v 3 5 -0
v 3 5 -11
v 3 5 -12
v 3 6 13
v 3 6 12
v 3 6 1
v 3 6 -0
v 3 6 -11
v 3 6 -12
v 9 2 13
v 9 2 12
v 9 2 1
v 9 2 -0
v 9 2 -11
v 9 2 -12
v 9 3 13
v 9 3 12
v 9 3 1
v 9 3 -0
v 9 3 -11
v 9 3 -12
v 9 5 13
v 9 5 12
v 9 5 1
v 9 5 -0
v 9 5 -11
v 9 5 -12
v 9 6 13
v 9 6 12
v 9 6 1
v 9 6 -0
v 9 6 -11
v 9 6 -12
v 15 2 13
v 15 2 12
v 15 2 1
v 15 2 -0
v 15 2 -11
v 15 2 -12
v 15 3 13
v 15 3 12
v 15 3 1
v 15 3 -0
v 15 3 -11
v 15 3 -12
v 15 5 13
v 15 5 12
v 15 5 1
v 15 5 -0
v 15 5 -11
v 15 5 -12
v 15 6 13
v 15 6 12
v 15 6 1
v 15 6 -0
v 15 6 -11
v 15 6 -12
v 18 1 17
v 18 1 8
v 18 1 5
v 18 1 -4
v 18 1 -7
v 18 1 -16
v 18 2 17
v 18 2 8
v 18 2 5
v 18 2 -4
v 18 2 -7
v 18 2 -16
v 20 0 20
v 20 0 -20
v 20 1 20
v 20 1 -20
v -20 0 20
v -20 1 20
v 20 0 20
v 20 1 20
v -18 1 17
v -18 2 17
v 18 1 17
v 18 2 17
v -16 2 13
v -16 3 13
v -16 5 13
v -16 6 13
v -15 2 13
v -15 3 13
v -15 5 13
v -15 6 13
v -10 2 13
v -10 3 13
v -10 5 13
v -10 6 13
v -9 2 13
v -9 3 13
v -9 5 13
v -9 6 13
v -4 2 13
v -4 3 13
v -4 5 13
v -4 6 13
v -3 2 13
v -3 3 13
v -3 5 13
v -3 6 13
v 2 2 13
v 2 3 13
v 2 5 13
v 2 6 13
v 3 2 13
v 3 3 13
v 3 5 13
v 3 6 13
v 8 2 13
v 8 3 13
v 8 5 13
v 8 6 13
v 9 2 13
v 9 3 13
v 9 5 13
v 9 6 13
v 14 2 13
v 14 3 13
v 14 5 13
v 14 6 13
v 15 2 13
v 15 3 13
v 15 5 13
v 15 6 13
v -18 1 5
v -18 2 5
v 18 1 5
v 18 2 5
v -16 2 1
v -16 3 1
v -16 5 1
v -16 6 1
v -15 2 1
v -15 3 1
v -15 5 1
v -15 6 1
v -10 2 1
v -10 3 1
v -10 5 1
v -10 6 1
v -9 2 1
v -9 3 1
v -9 5 1
v -9 6 1
v -4 2 1
v -4 3 1
v -4 5 1
v -4 6 1
v -3 2 1
v -3 3 1
v -3 5 1
v -3 6 1
v 2 2 1
v 2 3 1
v 2 5 1
v 2 6 1
v 3 2 1
v 3 3 1
v 3 5 1
v 3 6 1
v 8 2 1
v 8 3 1
v 8 5 1
v 8 6 1
v 9 2 1
v 9 3 1
v 9 5 1
v 9 6 1
v 14 2 1
v 14 3 1
v 14 5 1
v 14 6 1
v 15 2 1
v 15 3 1
v 15 5 1
v 15 6 1
v -18 1 -7
v -18 2 -7
v 18 1 -7
v 18 2 -7
v -16 2 -11
v -16 3 -11
v -16 5 -11
v -16 6 -11
v -15 2 -11
v -15 3 -11
v -15 5 -11
v -15 6 -11
v -10 2 -11
v -10 3 -11
v -10 5 -11
v -10 6 -11
v -9 2 -11
v -9 3 -11
v -9 5 -11
v -9 6 -11
v -4 2 -11
v -4 3 -11
v -4 5 -11
v -4 6 -11
v -3 2 -11
v -3 3 -11
v -3 5 -11
v -3 6 -11
v 2 2 -11
v 2 3 -11
v 2 5 -11
v 2 6 -11
v 3 2 -11
v 3 3 -11
v 3 5 -11
v 3 6 -11
v 8 2 -11
v 8 3 -11
v 8 5 -11
v 8 6 -11
v 9 2 -11
v 9 3 -11
v 9 5 -11
v 9 6 -11
v 14 2 -11
v 14 3 -11
v 14 5 -11
v 14 6 -11
v 15 2 -11
v 15 3 -11
v 15 5 -11
v 15 6 -11
v -16 2 12
v -16 3 12
v -16 5 12
v -16 6 12
v -15 2 12
v -15 3 12
v -15 5 12
v -15 6 12
v -10 2 12
v -10 3 12
v -10 5 12
v -10 6 12
v -9 2 12
v -9 3 12
v -9 5 12
v -9 6 12
v -4 2 12
v -4 3 12
v -4 5 12
v -4 6 12
v -3 2 12
v -3 3 12
v -3 5 12
v -3 6 12
v 2 2 12
v 2 3 12
v 2 5 12
v 2 6 12
v 3 2 12
v 3 3 12
v 3 5 12
v 3 6 12
v 8 2 12
v 8 3 12
v 8 5 12
v 8 6 12
v 9 2 12
v 9 3 12
v 9 5 12
v 9 6 12
v 14 2 12
v 14 3 12
v 14 5 12
v 14 6 12
v 15 2 12
v 15 3 12
v 15 5 12
v 15 6 12
v -18 1 8
v -18 2 8
v 18 1 8
v 18 2 8
v -16 2 -0
v -16 3 -0
v -16 5 -0
v -16 6 -0
v -15 2 -0
v -15 3 -0
v -15 5 -0
v -15 6 -0
v -10 2 -0
v -10 3 -0
v -10 5 -0
v -10 6 -0
v -9 2 -0
v -9 3 -0
v -9 5 -0
v -9 6 -0
v -4 2 -0
v -4 3 -0
v -4 5 -0
v -4 6 -0
v -3 2 -0
v -3 3 -0
v -3 5 -0
v -3 6 -0
v 2 2 -0
v 2 3 -0
v 2 5 -0
v 2 6 -0
v 3 2 -0
v 3 3 -0
v 3 5 -0
v 3 6 -0
v 8 2 -0
v 8 3 -0
v 8 5 -0
v 8 6 -0
v 9 2 -0
v 9 3 -0
v 9 5 -0
v 9 6 -0
v 14 2 -0
v 14 3 -0
v 14 5 -0
v 14 6 -0
v 15 2 -0
v 15 3 -0
v 15 5 -0
v 15 6 -0
v -18 1 -4
v -18 2 -4
v 18 1 -4
v 18 2 -4
v -16 2 -12
v -16 3 -12
v -16 5 -12
v -16 6 -12
v -15 2 -12
v -15 3 -12
v -15 5 -12
v -15 6 -12
v -10 2 -12
v -10 3 -12
v -10 5 -12
v -10 6 -12
v -9 2 -12
v -9 3 -12
v -9 5 -12
v -9 6 -12
v -4 2 -12
v -4 3 -12
v -4 5 -12
v -4 6 -12
v -3 2 -12
v -3 3 -12
v -3 5 -12
v -3 6 -12
v 2 2 -12
v 2 3 -12
v 2 5 -12
v 2 6 -12
v 3 2 -12
v 3 3 -12
v 3 5 -12
v 3 6 -12
v 8 2 -12
v 8 3 -12
v 8 5 -12
v 8 6 -12
v 9 2 -12
v 9 3 -12
v 9 5 -12
v 9 6 -12
v 14 2 -12
v 14 3 -12
v 14 5 -12
v 14 6 -12
v 15 2 -12
v 15 3 -12
v 15 5 -12
v 15 6 -12
v -18 1 -16
v -18 2 -16
v 18 1 -16
v 18 2 -16
v -20 0 -20
v -20 1 -20
v 20 0 -20
v 20 1 -20
v -20 0 20
v 20 0 20
v -20 0 -20
v 20 0 -20
v -20 1 20
v 20 1 20
v -18 1 17
v 18 1 17
v -18 1 8
v 18 1 8
v -18 1 5
v 18 1 5
v -18 1 -4
v 18 1 -4
v -18 1 -7
v 18 1 -7
v -18 1 -16
v 18 1 -16
v -20 1 -20
v 20 1 -20
v -18 2 17
v 18 2 17
v -16 2 13
v -15 2 13
v -10 2 13
v -9 2 13
v -4 2 13
v -3 2 13
v 2 2 13
v 3 2 13
v 8 2 13
v 9 2 13
v 14 2 13
v 15 2 13
v -16 2 12
v -15 2 12
v -10 2 12
v -9 2 12
v -4 2 12
v -3 2 12
v 2 2 12
v 3 2 12
v 8 2 12
v 9 2 12
v 14 2 12
v 15 2 12
v -18 2 8
v 18 2 8
v -18 2 5
v 18 2 5
v -16 2 1
v -15 2 1
v -10 2 1
v -9 2 1
v -4 2 1
v -3 2 1
v 2 2 1
v 3 2 1
v 8 2 1
v 9 2 1
v 14 2 1
v 15 2 1
v -16 2 -0
v -15 2 -0
v -10 2 -0
v -9 2 -0
v -4 2 -0
v -3 2 -0
v 2 2 -0
v 3 2 -0
v 8 2 -0
v 9 2 -0
v 14 2 -0
v 15 2 -0
v -18 2 -4
v 18 2 -4
v -18 2 -7
v 18 2 -7
v -16 2 -11
v -15 2 -11
v -10 2 -11
v -9 2 -11
v -4 2 -11
v -3 2 -11
v 2 2 -11
v 3 2 -11
v 8 2 -11
v 9 2 -11
v 14 2 -11
v 15 2 -11
v -16 2 -12
v -15 2 -12
v -10 2 -12
v -9 2 -12
v -4 2 -12
v -3 2 -12
v 2 2 -12
v 3 2 -12
v 8 2 -12
v 9 2 -12
v 14 2 -12
v 15 2 -12
v -18 2 -16
v 18 2 -16
v -16 6 13
v -15 6 13
v -10 6 13
v -9 6 13
v -4 6 13
v -3 6 13
v 2 6 13
v 3 6 13
v 8 6 13
v 9 6 13
v 14 6 13
v 15 6 13
v -16 6 12
v -15 6 12
v -10 6 12
v -9 6 12
v -4 6 12
v -3 6 12
v 2 6 12
v 3 6 12
v 8 6 12
v 9 6 12
v 14 6 12
v 15 6 12
v -16 6 1
v -15 6 1
v -10 6 1
v -9 6 1
v -4 6 1
v -3 6 1
v 2 6 1
v 3 6 1
v 8 6 1
v 9 6 1
v 14 6 1
v 15 6 1
v -16 6 -0
v -15 6 -0
v -10 6 -0
v -9 6 -0
v -4 6 -0
v -3 6 -0
v 2 6 -0
v 3 6 -0
v 8 6 -0
v 9 6 -0
v 14 6 -0
v 15 6 -0
v -16 6 -11
v -15 6 -11
v -10 6 -11
v -9 6 -11
v -4 6 -11
v -3 6 -11
v 2 6 -11
v 3 6 -11
v 8 6 -11
v 9 6 -11
v 14 6 -11
v 15 6 -11
v -16 6 -12
v -15 6 -12
v -10 6 -12
v -9 6 -12
v -4 6 -12
v -3 6 -12
v 2 6 -12
v 3 6 -12
v 8 6 -12
v 9 6 -12
v 14 6 -12
v 15 6 -12

# faces
f 3/1/1 2/1/1 1/1/1
f 4/1/1 2/1/1 3/1/1
f 11/3/1 6/3/1 5/3/1
f 12/3/1 6/3/1 11/3/1
f 13/3/1 8/3/1 7/3/1
f 14/3/1 8/3/1 13/3/1
f 15/3/1 10/3/1 9/3/1
f 16/3/1 10/3/1 15/3/1
f 23/5/1 18/5/1 17/5/1
f 24/5/1 18/5/1 23/5/1
f 25/5/1 20/5/1 19/5/1
f 26/5/1 20/5/1 25/5/1
f 27/5/1 22/5/1 21/5/1
f 28/5/1 22/5/1 27/5/1
f 29/4/1 24/4/1 23/4/1
f 30/4/1 24/4/1 29/4/1
f 31/4/1 26/4/1 25/4/1
f 32/4/1 26/4/1 31/4/1
f 33/4/1 28/4/1 27/4/1
f 34/4/1 28/4/1 33/4/1
f 35/2/1 30/2/1 29/2/1
f 36/2/1 30/2/1 35/2/1
f 37/2/1 32/2/1 31/2/1
f 38/2/1 32/2/1 37/2/1
f 39/2/1 34/2/1 33/2/1
f 40/2/1 34/2/1 39/2/1
f 47/5/1 42/5/1 41/5/1
f 48/5/1 42/5/1 47/5/1
f 49/5/1 44/5/1 43/5/1
f 50/5/1 44/5/1 49/5/1
f 51/5/1 46/5/1 45/5/1
f 52/5/1 46/5/1 51/5/1
f 53/4/1 48/4/1 47/4/1
f 54/4/1 48/4/1 53/4/1
f 55/4/1 50/4/1 49/4/1
f 56/4/1 50/4/1 55/4/1
f 57/4/1 52/4/1 51/4/1
f 58/4/1 52/4/1 57/4/1
f 59/2/1 54/2/1 53/2/1
f 60/2/1 54/2/1 59/2/1
f 61/2/1 56/2/1 55/2/1
f 62/2/1 56/2/1 61/2/1
f 63/2/1 58/2/1 57/2/1
f 64/2/1 58/2/1 63/2/1
f 71/5/1 66/5/1 65/5/1
f 72/5/1 66/5/1 71/5/1
f 73/5/1 68/5/1 67/5/1
f 74/5/1 68/5/1 73/5/1
f 75/5/1 70/5/1 69/5/1
f 76/5/1 70/5/1 75/5/1
f 77/4/1 72/4/1 71/4/1
f 78/4/1 72/4/1 77/4/1
f 79/4/1 74/4/1 73/4/1
f 80/4/1 74/4/1 79/4/1
f 81/4/1 76/4/1 75/4/1
f 82/4/1 76/4/1 81/4/1
f 83/2/1 78/2/1 77/2/1
f 84/2/1 78/2/1 83/2/1
f 85/2/1 80/2/1 79/2/1
f 86/2/1 80/2/1 85/2/1
f 87/2/1 82/2/1 81/2/1
f 88/2/1 82/2/1 87/2/1
f 95/5/1 90/5/1 89/5/1
f 96/5/1 90/5/1 95/5/1
f 97/5/1 92/5/1 91/5/1
f 98/5/1 92/5/1 97/5/1
f 99/5/1 94/5/1 93/5/1
f 100/5/1 94/5/1 99/5/1
f 101/4/1 96/4/1 95/4/1
f 102/4/1 96/4/1 101/4/1
f 103/4/1 98/4/1 97/4/1
f 104/4/1 98/4/1 103/4/1
f 105/4/1 100/4/1 99/4/1
f 106/4/1 100/4/1 105/4/1
f 107/2/1 102/2/1 101/2/1
f 108/2/1 102/2/1 107/2/1
f 109/2/1 104/2/1 103/2/1
f 110/2/1 104/2/1 109/2/1
f 111/2/1 106/2/1 105/2/1
f 112/2/1 106/2/1 111/2/1
f 119/5/1 114/5/1 113/5/1
f 120/5/1 114/5/1 119/5/1
f 121/5/1 116/5/1 115/5/1
f 122/5/1 116/5/1 121/5/1
f 123/5/1 118/5/1 117/5/1
f 124/5/1 118/5/1 123/5/1
f 125/4/1 120/4/1 119/4/1
f 126/4/1 120/4/1 125/4/1
f 127/4/1 122/4/1 121/4/1
f 128/4/1 122/4/1 127/4/1
f 129/4/1 124/4/1 123/4/1
f 130/4/1 124/4/1 129/4/1
f 131/2/1 126/2/1 125/2/1
f 132/2/1 126/2/1 131/2/1
f 133/2/1 128/2/1 127/2/1
f 134/2/1 128/2/1 133/2/1
f 135/2/1 130/2/1 129/2/1
f 136/2/1 130/2/1 135/2/1
f 143/5/1 138/5/1 137/5/1
f 144/5/1 138/5/1 143/5/1
f 145/5/1 140/5/1 139/5/1
f 146/5/1 140/5/1 145/5/1
f 147/5/1 142/5/1 141/5/1
f 148/5/1 142/5/1 147/5/1
f 149/4/1 144/4/1 143/4/1
f 150/4/1 144/4/1 149/4/1
f 151/4/1 146/4/1 145/4/1
f 152/4/1 146/4/1 151/4/1
f 153/4/1 148/4/1 147/4/1
f 154/4/1 148/4/1 153/4/1
f 155/2/1 150/2/1 149/2/1
f 156/2/1 150/2/1 155/2/1
f 157/2/1 152/2/1 151/2/1
f 158/2/1 152/2/1 157/2/1
f 159/2/1 154/2/1 153/2/1
f 160/2/1 154/2/1 159/2/1
f 161/5/2 162/5/2 167/5/2
f 167/5/2 162/5/2 168/5/2
f 163/5/2 164/5/2 169/5/2
f 169/5/2 164/5/2 170/5/2
f 165/5/2 166/5/2 171/5/2
f 171/5/2 166/5/2 172/5/2
f 167/4/2 168/4/2 173/4/2
f 173/4/2 168/4/2 174/4/2
f 169/4/2 170/4/2 175/4/2
f 175/4/2 170/4/2 176/4/2
f 171/4/2 172/4/2 177/4/2
f 177/4/2 172/4/2 178/4/2
f 173/2/2 174/2/2 179/2/2
f 179/2/2 174/2/2 180/2/2
f 175/2/2 176/2/2 181/2/2
f 181/2/2 176/2/2 182/2/2
f 177/2/2 178/2/2 183/2/2
f 183/2/2 178/2/2 184/2/2
f 185/5/2 186/5/2 191/5/2
f 191/5/2 186/5/2 192/5/2
f 187/5/2 188/5/2 193/5/2
f 193/5/2 188/5/2 194/5/2
f 189/5/2 190/5/2 195/5/2
f 195/5/2 190/5/2 196/5/2
f 191/4/2 192/4/2 197/4/2
f 197/4/2 192/4/2 198/4/2
f 193/4/2 194/4/2 199/4/2
f 199/4/2 194/4/2 200/4/2
f 195/4/2 196/4/2 201/4/2
f 201/4/2 196/4/2 202/4/2
f 197/2/2 198/2/2 203/2/2
f 203/2/2 198/2/2 204/2/2
f 199/2/2 200/2/2 205/2/2
f 205/2/2 200/2/2 206/2/2
f 201/2/2 202/2/2 207/2/2
f 207/2/2 202/2/2 208/2/2
f 209/5/2 210/5/2 215/5/2
f 215/5/2 210/5/2 216/5/2
f 211/5/2 212/5/2 217/5/2
f 217/5/2 212/5/2 218/5/2
f 213/5/2 214/5/2 219/5/2
f 219/5/2 214/5/2 220/5/2
f 215/4/2 216/4/2 221/4/2
f 221/4/2 216/4/2 222/4/2
f 217/4/2 218/4/2 223/4/2
f 223/4/2 218/4/2 224/4/2
f 219/4/2 220/4/2 225/4/2
f 225/4/2 220/4/2 226/4/2
f 221/2/2 222/2/2 227/2/2
f 227/2/2 222/2/2 228/2/2
f 223/2/2 224/2/2 229/2/2
f 229/2/2 224/2/2 230/2/2
f 225/2/2 226/2/2 231/2/2
f 231/2/2 226/2/2 232/2/2
f 233/5/2 234/5/2 239/5/2
f 239/5/2 234/5/2 240/5/2
f 235/5/2 236/5/2 241/5/2
f 241/5/2 236/5/2 242/5/2
f 237/5/2 238/5/2 243/5/2
f 243/5/2 238/5/2 244/5/2
f 239/4/2 240/4/2 245/4/2
f 245/4/2 240/4/2 246/4/2
f 241/4/2 242/4/2 247/4/2
f 247/4/2 242/4/2 248/4/2
f 243/4/2 244/4/2 249/4/2
f 249/4/2 244/4/2 250/4/2
f 245/2/2 246/2/2 251/2/2
f 251/2/2 246/2/2 252/2/2
f 247/2/2 248/2/2 253/2/2
f 253/2/2 248/2/2 254/2/2
f 249/2/2 250/2/2 255/2/2
f 255/2/2 250/2/2 256/2/2
f 257/5/2 258/5/2 263/5/2
f 263/5/2 258/5/2 264/5/2
f 259/5/2 260/5/2 265/5/2
f 265/5/2 260/5/2 266/5/2
f 261/5/2 262/5/2 267/5/2
f 267/5/2 262/5/2 268/5/2
f 263/4/2 264/4/2 269/4/2
f 269/4/2 264/4/2 270/4/2
f 265/4/2 266/4/2 271/4/2
f 271/4/2 266/4/2 272/4/2
f 267/4/2 268/4/2 273/4/2
f 273/4/2 268/4/2 274/4/2
f 269/2/2 270/2/2 275/2/2
f 275/2/2 270/2/2 276/2/2
f 271/2/2 272/2/2 277/2/2
f 277/2/2 272/2/2 278/2/2
f 273/2/2 274/2/2 279/2/2
f 279/2/2 274/2/2 280/2/2
f 281/5/2 282/5/2 287/5/2
f 287/5/2 282/5/2 288/5/2
f 283/5/2 284/5/2 289/5/2
f 289/5/2 284/5/2 290/5/2
f 285/5/2 286/5/2 291/5/2
f 291/5/2 286/5/2 292/5/2
f 287/4/2 288/4/2 293/4/2
f 293/4/2 288/4/2 294/4/2
f 289/4/2 290/4/2 295/4/2
f 295/4/2 290/4/2 296/4/2
f 291/4/2 292/4/2 297/4/2
f 297/4/2 292/4/2 298/4/2
f 293/2/2 294/2/2 299/2/2
f 299/2/2 294/2/2 300/2/2
f 295/2/2 296/2/2 301/2/2
f 301/2/2 296/2/2 302/2/2
f 297/2/2 298/2/2 303/2/2
f 303/2/2 298/2/2 304/2/2
f 305/3/2 306/3/2 311/3/2
f 311/3/2 306/3/2 312/3/2
f 307/3/2 308/3/2 313/3/2
f 313/3/2 308/3/2 314/3/2
f 309/3/2 310/3/2 315/3/2
f 315/3/2 310/3/2 316/3/2
f 317/1/2 318/1/2 319/1/2
f 319/1/2 318/1/2 320/1/2
f 323/1/3 322/1/3 321/1/3
f 324/1/3 322/1/3 323/1/3
f 327/3/3 326/3/3 325/3/3
f 328/3/3 326/3/3 327/3/3
f 333/5/3 330/5/3 329/5/3
f 334/4/3 331/4/3 330/4/3
f 334/5/3 330/5/3 333/5/3
f 335/2/3 332/2/3 331/2/3
f 335/4/3 331/4/3 334/4/3
f 336/2/3 332/2/3 335/2/3
f 341/5/3 338/5/3 337/5/3
f 342/4/3 339/4/3 338/4/3
f 342/5/3 338/5/3 341/5/3
f 343/2/3 340/2/3 339/2/3
f 343/4/3 339/4/3 342/4/3
f 344/2/3 340/2/3 343/2/3
f 349/5/3 346/5/3 345/5/3
f 350/4/3 347/4/3 346/4/3
f 350/5/3 346/5/3 349/5/3
f 351/2/3 348/2/3 347/2/3
f 351/4/3 347/4/3 350/4/3
f 352/2/3 348/2/3 351/2/3
f 357/5/3 354/5/3 353/5/3
f 358/4/3 355/4/3 354/4/3
f 358/5/3 354/5/3 357/5/3
f 359/2/3 356/2/3 355/2/3
f 359/4/3 355/4/3 358/4/3
f 360/2/3 356/2/3 359/2/3
f 365/5/3 362/5/3 361/5/3
f 366/4/3 363/4/3 362/4/3
f 366/5/3 362/5/3 365/5/3
f 367/2/3 364/2/3 363/2/3
f 367/4/3 363/4/3 366/4/3
f 368/2/3 364/2/3 367/2/3
f 373/5/3 370/5/3 369/5/3
f 374/4/3 371/4/3 370/4/3
f 374/5/3 370/5/3 373/5/3
f 375/2/3 372/2/3 371/2/3
f 375/4/3 371/4/3 374/4/3
f 376/2/3 372/2/3 375/2/3
f 379/3/3 378/3/3 377/3/3
f 380/3/3 378/3/3 379/3/3
f 385/5/3 382/5/3 381/5/3
f 386/4/3 383/4/3 382/4/3
f 386/5/3 382/5/3 385/5/3
f 387/2/3 384/2/3 383/2/3
f 387/4/3 383/4/3 386/4/3
f 388/2/3 384/2/3 387/2/3
f 393/5/3 390/5/3 389/5/3
f 394/4/3 391/4/3 390/4/3
f 394/5/3 390/5/3 393/5/3
f 395/2/3 392/2/3 391/2/3
f 395/4/3 391/4/3 394/4/3
f 396/2/3 392/2/3 395/2/3
f 401/5/3 398/5/3 397/5/3
f 402/4/3 399/4/3 398/4/3
f 402/5/3 398/5/3 401/5/3
f 403/2/3 400/2/3 399/2/3
f 403/4/3 399/4/3 402/4/3
f 404/2/3 400/2/3 403/2/3
f 409/5/3 406/5/3 405/5/3
f 410/4/3 407/4/3 406/4/3
f 410/5/3 406/5/3 409/5/3
f 411/2/3 408/2/3 407/2/3
f 411/4/3 407/4/3 410/4/3
f 412/2/3 408/2/3 411/2/3
f 417/5/3 414/5/3 413/5/3
f 418/4/3 415/4/3 414/4/3
f 418/5/3 414/5/3 417/5/3
f 419/2/3 416/2/3 415/2/3
f 419/4/3 415/4/3 418/4/3
f 420/2/3 416/2/3 419/2/3
f 425/5/3 422/5/3 421/5/3
f 426/4/3 423/4/3 422/4/3
f 426/5/3 422/5/3 425/5/3
f 427/2/3 424/2/3 423/2/3
f 427/4/3 423/4/3 426/4/3
f 428/2/3 424/2/3 427/2/3
f 431/3/3 430/3/3 429/3/3
f 432/3/3 430/3/3 431/3/3
f 437/5/3 434/5/3 433/5/3
f 438/4/3 435/4/3 434/4/3
f 438/5/3 434/5/3 437/5/3
f 439/2/3 436/2/3 435/2/3
f 439/4/3 435/4/3 438/4/3
f 440/2/3 436/2/3 439/2/3
f 445/5/3 442/5/3 441/5/3
f 446/4/3 443/4/3 442/4/3
f 446/5/3 442/5/3 445/5/3
f 447/2/3 444/2/3 443/2/3
f 447/4/3 443/4/3 446/4/3
f 448/2/3 444/2/3 447/2/3
f 453/5/3 450/5/3 449/5/3
f 454/4/3 451/4/3 450/4/3
f 454/5/3 450/5/3 453/5/3
f 455/2/3 452/2/3 451/2/3
f 455/4/3 451/4/3 454/4/3
f 456/2/3 452/2/3 455/2/3
f 461/5/3 458/5/3 457/5/3
f 462/4/3 459/4/3 458/4/3
f 462/5/3 458/5/3 461/5/3
f 463/2/3 460/2/3 459/2/3
f 463/4/3 459/4/3 462/4/3
f 464/2/3 460/2/3 463/2/3
f 469/5/3 466/5/3 465/5/3
f 470/4/3 467/4/3 466/4/3
f 470/5/3 466/5/3 469/5/3
f 471/2/3 468/2/3 467/2/3
f 471/4/3 467/4/3 470/4/3
f 472/2/3 468/2/3 471/2/3
f 477/5/3 474/5/3 473/5/3
f 478/4/3 475/4/3 474/4/3
f 478/5/3 474/5/3 477/5/3
f 479/2/3 476/2/3 475/2/3
f 479/4/3 475/4/3 478/4/3
f 480/2/3 476/2/3 479/2/3
f 481/5/4 482/5/4 485/5/4
f 482/4/4 483/4/4 486/4/4
f 485/5/4 482/5/4 486/5/4
f 483/2/4 484/2/4 487/2/4
f 486/4/4 483/4/4 487/4/4
f 487/2/4 484/2/4 488/2/4
f 489/5/4 490/5/4 493/5/4
f 490/4/4 491/4/4 494/4/4
f 493/5/4 490/5/4 494/5/4
f 491/2/4 492/2/4 495/2/4
f 494/4/4 491/4/4 495/4/4
f 495/2/4 492/2/4 496/2/4
f 497/5/4 498/5/4 501/5/4
f 498/4/4 499/4/4 502/4/4
f 501/5/4 498/5/4 502/5/4
f 499/2/4 500/2/4 503/2/4
f 502/4/4 499/4/4 503/4/4
f 503/2/4 500/2/4 504/2/4
f 505/5/4 506/5/4 509/5/4
f 506/4/4 507/4/4 510/4/4
f 509/5/4 506/5/4 510/5/4
f 507/2/4 508/2/4 511/2/4
f 510/4/4 507/4/4 511/4/4
f 511/2/4 508/2/4 512/2/4
f 513/5/4 514/5/4 517/5/4
f 514/4/4 515/4/4 518/4/4
f 517/5/4 514/5/4 518/5/4
f 515/2/4 516/2/4 519/2/4
f 518/4/4 515/4/4 519/4/4
f 519/2/4 516/2/4 520/2/4
f 521/5/4 522/5/4 525/5/4
f 522/4/4 523/4/4 526/4/4
f 525/5/4 522/5/4 526/5/4
f 523/2/4 524/2/4 527/2/4
f 526/4/4 523/4/4 527/4/4
f 527/2/4 524/2/4 528/2/4
f 529/3/4 530/3/4 531/3/4
f 531/3/4 530/3/4 532/3/4
f 533/5/4 534/5/4 537/5/4
f 534/4/4 535/4/4 538/4/4
f 537/5/4 534/5/4 538/5/4
f 535/2/4 536/2/4 539/2/4
f 538/4/4 535/4/4 539/4/4
f 539/2/4 536/2/4 540/2/4
f 541/5/4 542/5/4 545/5/4
f 542/4/4 543/4/4 546/4/4
f 545/5/4 542/5/4 546/5/4
f 543/2/4 544/2/4 547/2/4
f 546/4/4 543/4/4 547/4/4
f 547/2/4 544/2/4 548/2/4
f 549/5/4 550/5/4 553/5/4
f 550/4/4 551/4/4 554/4/4
f 553/5/4 550/5/4 554/5/4
f 551/2/4 552/2/4 555/2/4
f 554/4/4 551/4/4 555/4/4
f 555/2/4 552/2/4 556/2/4
f 557/5/4 558/5/4 561/5/4
f 558/4/4 559/4/4 562/4/4
f 561/5/4 558/5/4 562/5/4
f 559/2/4 560/2/4 563/2/4
f 562/4/4 559/4/4 563/4/4
f 563/2/4 560/2/4 564/2/4
f 565/5/4 566/5/4 569/5/4
f 566/4/4 567/4/4 570/4/4
f 569/5/4 566/5/4 570/5/4
f 567/2/4 568/2/4 571/2/4
f 570/4/4 567/4/4 571/4/4
f 571/2/4 568/2/4 572/2/4
f 573/5/4 574/5/4 577/5/4
f 574/4/4 575/4/4 578/4/4
f 577/5/4 574/5/4 578/5/4
f 575/2/4 576/2/4 579/2/4
f 578/4/4 575/4/4 579/4/4
f 579/2/4 576/2/4 580/2/4
f 581/3/4 582/3/4 583/3/4
f 583/3/4 582/3/4 584/3/4
f 585/5/4 586/5/4 589/5/4
f 586/4/4 587/4/4 590/4/4
f 589/5/4 586/5/4 590/5/4
f 587/2/4 588/2/4 591/2/4
f 590/4/4 587/4/4 591/4/4
f 591/2/4 588/2/4 592/2/4
f 593/5/4 594/5/4 597/5/4
f 594/4/4 595/4/4 598/4/4
f 597/5/4 594/5/4 598/5/4
f 595/2/4 596/2/4 599/2/4
f 598/4/4 595/4/4 599/4/4
f 599/2/4 596/2/4 600/2/4
f 601/5/4 602/5/4 605/5/4
f 602/4/4 603/4/4 606/4/4
f 605/5/4 602/5/4 606/5/4
f 603/2/4 604/2/4 607/2/4
f 606/4/4 603/4/4 607/4/4
f 607/2/4 604/2/4 608/2/4
f 609/5/4 610/5/4 613/5/4
f 610/4/4 611/4/4 614/4/4
f 613/5/4 610/5/4 614/5/4
f 611/2/4 612/2/4 615/2/4
f 614/4/4 611/4/4 615/4/4
f 615/2/4 612/2/4 616/2/4
f 617/5/4 618/5/4 621/5/4
f 618/4/4 619/4/4 622/4/4
f 621/5/4 618/5/4 622/5/4
f 619/2/4 620/2/4 623/2/4
f 622/4/4 619/4/4 623/4/4
f 623/2/4 620/2/4 624/2/4
f 625/5/4 626/5/4 629/5/4
f 626/4/4 627/4/4 630/4/4
f 629/5/4 626/5/4 630/5/4
f 627/2/4 628/2/4 631/2/4
f 630/4/4 627/4/4 631/4/4
f 631/2/4 628/2/4 632/2/4
f 633/3/4 634/3/4 635/3/4
f 635/3/4 634/3/4 636/3/4
f 637/1/4 638/1/4 639/1/4
f 639/1/4 638/1/4 640/1/4
f 643/1/5 642/1/5 641/1/5
f 644/1/5 642/1/5 643/1/5
f 645/1/6 646/1/6 647/1/6
f 647/1/6 646/1/6 648/1/6
f 645/1/6 647/1/6 649/1/6
f 648/1/6 646/1/6 650/1/6
f 645/1/6 649/1/6 651/1/6
f 649/1/6 650/1/6 651/1/6
f 650/1/6 646/1/6 652/1/6
f 651/1/6 650/1/6 652/1/6
f 645/1/6 651/1/6 653/1/6
f 652/1/6 646/1/6 654/1/6
f 645/1/6 653/1/6 655/1/6
f 653/1/6 654/1/6 655/1/6
f 654/1/6 646/1/6 656/1/6
f 655/1/6 654/1/6 656/1/6
f 645/1/6 655/1/6 657/1/6
f 656/1/6 646/1/6 658/1/6
f 645/1/6 657/1/6 659/1/6
f 657/1/6 658/1/6 659/1/6
f 658/1/6 646/1/6 660/1/6
f 659/1/6 658/1/6 660/1/6
f 661/3/6 662/3/6 663/3/6
f 663/3/6 662/3/6 664/3/6
f 664/3/6 662/3/6 665/3/6
f 665/3/6 662/3/6 666/3/6
f 666/3/6 662/3/6 667/3/6
f 667/3/6 662/3/6 668/3/6
f 668/3/6 662/3/6 669/3/6
f 669/3/6 662/3/6 670/3/6
f 670/3/6 662/3/6 671/3/6
f 671/3/6 662/3/6 672/3/6
f 672/3/6 662/3/6 673/3/6
f 673/3/6 662/3/6 674/3/6
f 661/3/6 663/3/6 675/3/6
f 664/3/6 665/3/6 676/3/6
f 676/3/6 665/3/6 677/3/6
f 666/3/6 667/3/6 678/3/6
f 678/3/6 667/3/6 679/3/6
f 668/3/6 669/3/6 680/3/6
f 680/3/6 669/3/6 681/3/6
f 670/3/6 671/3/6 682/3/6
f 682/3/6 671/3/6 683/3/6
f 672/3/6 673/3/6 684/3/6
f 684/3/6 673/3/6 685/3/6
f 674/3/6 662/3/6 686/3/6
f 684/3/6 685/3/6 687/3/6
f 685/3/6 686/3/6 687/3/6
f 682/3/6 683/3/6 687/3/6
f 661/3/6 675/3/6 687/3/6
f 683/3/6 684/3/6 687/3/6
f 680/3/6 681/3/6 687/3/6
f 681/3/6 682/3/6 687/3/6
f 676/3/6 677/3/6 687/3/6
f 679/3/6 680/3/6 687/3/6
f 678/3/6 679/3/6 687/3/6
f 677/3/6 678/3/6 687/3/6
f 675/3/6 676/3/6 687/3/6
f 686/3/6 662/3/6 688/3/6
f 687/3/6 686/3/6 688/3/6
f 689/3/6 690/3/6 691/3/6
f 691/3/6 690/3/6 692/3/6
f 692/3/6 690/3/6 693/3/6
f 693/3/6 690/3/6 694/3/6
f 694/3/6 690/3/6 695/3/6
f 695/3/6 690/3/6 696/3/6
f 696/3/6 690/3/6 697/3/6
f 697/3/6 690/3/6 698/3/6
f 698/3/6 690/3/6 699/3/6
f 699/3/6 690/3/6 700/3/6
f 700/3/6 690/3/6 701/3/6
f 701/3/6 690/3/6 702/3/6
f 689/3/6 691/3/6 703/3/6
f 692/3/6 693/3/6 704/3/6
f 704/3/6 693/3/6 705/3/6
f 694/3/6 695/3/6 706/3/6
f 706/3/6 695/3/6 707/3/6
f 696/3/6 697/3/6 708/3/6
f 708/3/6 697/3/6 709/3/6
f 698/3/6 699/3/6 710/3/6
f 710/3/6 699/3/6 711/3/6
f 700/3/6 701/3/6 712/3/6
f 712/3/6 701/3/6 713/3/6
f 702/3/6 690/3/6 714/3/6
f 712/3/6 713/3/6 715/3/6
f 713/3/6 714/3/6 715/3/6
f 710/3/6 711/3/6 715/3/6
f 689/3/6 703/3/6 715/3/6
f 711/3/6 712/3/6 715/3/6
f 708/3/6 709/3/6 715/3/6
f 709/3/6 710/3/6 715/3/6
f 704/3/6 705/3/6 715/3/6
f 707/3/6 708/3/6 715/3/6
f 706/3/6 707/3/6 715/3/6
f 705/3/6 706/3/6 715/3/6
f 703/3/6 704/3/6 715/3/6
f 714/3/6 690/3/6 716/3/6
f 715/3/6 714/3/6 716/3/6
f 717/3/6 718/3/6 719/3/6
f 719/3/6 718/3/6 720/3/6
f 720/3/6 718/3/6 721/3/6
f 721/3/6 718/3/6 722/3/6
f 722/3/6 718/3/6 723/3/6
f 723/3/6 718/3/6 724/3/6
f 724/3/6 718/3/6 725/3/6
f 725/3/6 718/3/6 726/3/6
f 726/3/6 718/3/6 727/3/6
f 727/3/6 718/3/6 728/3/6
f 728/3/6 718/3/6 729/3/6
f 729/3/6 718/3/6 730/3/6
f 717/3/6 719/3/6 731/3/6
f 720/3/6 721/3/6 732/3/6
f 732/3/6 721/3/6 733/3/6
f 722/3/6 723/3/6 734/3/6
f 734/3/6 723/3/6 735/3/6
f 724/3/6 725/3/6 736/3/6
f 736/3/6 725/3/6 737/3/6
f 726/3/6 727/3/6 738/3/6
f 738/3/6 727/3/6 739/3/6
f 728/3/6 729/3/6 740/3/6
f 740/3/6 729/3/6 741/3/6
f 730/3/6 718/3/6 742/3/6
f 740/3/6 741/3/6 743/3/6
f 741/3/6 742/3/6 743/3/6
f 738/3/6 739/3/6 743/3/6
f 717/3/6 731/3/6 743/3/6
f 739/3/6 740/3/6 743/3/6
f 736/3/6 737/3/6 743/3/6
f 737/3/6 738/3/6 743/3/6
f 732/3/6 733/3/6 743/3/6
f 735/3/6 736/3/6 743/3/6
f 734/3/6 735/3/6 743/3/6
f 733/3/6 734/3/6 743/3/6
f 731/3/6 732/3/6 743/3/6
f 742/3/6 718/3/6 744/3/6
f 743/3/6 742/3/6 744/3/6
f 745/2/6 746/2/6 757/2/6
f 757/2/6 746/2/6 758/2/6
f 747/2/6 748/2/6 759/2/6
f 759/2/6 748/2/6 760/2/6
f 749/2/6 750/2/6 761/2/6
f 761/2/6 750/2/6 762/2/6
f 751/2/6 752/2/6 763/2/6
f 763/2/6 752/2/6 764/2/6
f 753/2/6 754/2/6 765/2/6
f 765/2/6 754/2/6 766/2/6
f 755/2/6 756/2/6 767/2/6
f 767/2/6 756/2/6 768/2/6
f 769/2/6 770/2/6 781/2/6
f 781/2/6 770/2/6 782/2/6
f 771/2/6 772/2/6 783/2/6
f 783/2/6 772/2/6 784/2/6
f 773/2/6 774/2/6 785/2/6
f 785/2/6 774/2/6 786/2/6
f 775/2/6 776/2/6 787/2/6
f 787/2/6 776/2/6 788/2/6
f 777/2/6 778/2/6 789/2/6
f 789/2/6 778/2/6 790/2/6
f 779/2/6 780/2/6 791/2/6
f 791/2/6 780/2/6 792/2/6
f 793/2/6 794/2/6 805/2/6
f 805/2/6 794/2/6 806/2/6
f 795/2/6 796/2/6 807/2/6
f 807/2/6 796/2/6 808/2/6
f 797/2/6 798/2/6 809/2/6
f 809/2/6 798/2/6 810/2/6
f 799/2/6 800/2/6 811/2/6
f 811/2/6 800/2/6 812/2/6
f 801/2/6 802/2/6 813/2/6
f 813/2/6 802/2/6 814/2/6
f 803/2/6 804/2/6 815/2/6
f 815/2/6 804/2/6 816/2/6
