# MagicaVoxel @ Ephtracy

# group
g edgeTile2Side

# material
mtllib edgeTile2Side.mtl
usemtl palette

# normals
vn -1 0 0
vn 1 0 0
vn 0 0 1
vn 0 0 -1
vn 0 -1 0
vn 0 1 0

# texcoords
vt 0.00195312 0.5
vt 0.0410156 0.5

# verts
v -20 0 20
v -20 0 -20
v -20 1 20
v -20 1 -20
v -11 1 20
v -11 1 -11
v -11 2 20
v -11 2 -11
v 20 0 20
v 20 0 -11
v 20 0 -20
v 20 1 -11
v 20 1 -20
v 20 2 20
v 20 2 -11
v -20 0 20
v -20 1 20
v -11 0 20
v -11 1 20
v -11 2 20
v 20 0 20
v 20 2 20
v -11 1 -11
v -11 2 -11
v 20 1 -11
v 20 2 -11
v -20 0 -20
v -20 1 -20
v 20 0 -20
v 20 1 -20
v -20 0 20
v -11 0 20
v 20 0 20
v -11 0 19
v -8 0 19
v -8 0 -11
v 20 0 -11
v -20 0 -20
v 20 0 -20
v -20 1 20
v -11 1 20
v -11 1 -11
v 20 1 -11
v -20 1 -20
v 20 1 -20
v -11 2 20
v 20 2 20
v -11 2 -11
v 20 2 -11

# faces
f 3/2/1 2/2/1 1/2/1
f 4/2/1 2/2/1 3/2/1
f 7/1/1 6/1/1 5/1/1
f 8/1/1 6/1/1 7/1/1
f 9/1/2 10/1/2 12/1/2
f 10/2/2 11/2/2 12/2/2
f 12/2/2 11/2/2 13/2/2
f 9/1/2 12/1/2 14/1/2
f 14/1/2 12/1/2 15/1/2
f 18/2/3 17/2/3 16/2/3
f 19/2/3 17/2/3 18/2/3
f 21/1/3 19/1/3 18/1/3
f 21/1/3 20/1/3 19/1/3
f 22/1/3 20/1/3 21/1/3
f 23/1/4 24/1/4 25/1/4
f 25/1/4 24/1/4 26/1/4
f 27/2/4 28/2/4 29/2/4
f 29/2/4 28/2/4 30/2/4
f 34/2/5 32/2/5 31/2/5
f 34/1/5 33/1/5 32/1/5
f 35/1/5 33/1/5 34/1/5
f 36/2/5 35/2/5 34/2/5
f 36/1/5 33/1/5 35/1/5
f 37/1/5 33/1/5 36/1/5
f 38/2/5 34/2/5 31/2/5
f 38/2/5 36/2/5 34/2/5
f 38/2/5 37/2/5 36/2/5
f 39/2/5 37/2/5 38/2/5
f 40/2/6 41/2/6 42/2/6
f 40/2/6 42/2/6 44/2/6
f 42/2/6 43/2/6 44/2/6
f 44/2/6 43/2/6 45/2/6
f 46/1/6 47/1/6 48/1/6
f 48/1/6 47/1/6 49/1/6
