# MagicaVoxel @ Ephtracy

# group
g elevatedGrassTile

# material
mtllib elevatedGrassTile.mtl
usemtl palette

# normals
vn -1 0 0
vn 1 0 0
vn 0 0 1
vn 0 0 -1
vn 0 -1 0
vn 0 1 0

# texcoords
vt 0.00195312 0.5
vt 0.00585938 0.5

# verts
v -20 0 20
v -20 0 -20
v -20 2 20
v -20 2 -20
v -16 0 17
v -16 0 13
v -16 1 17
v -16 1 13
v -13 0 10
v -13 0 7
v -13 1 10
v -13 1 7
v -12 0 -7
v -12 0 -11
v -12 1 -7
v -12 1 -11
v -11 0 5
v -11 0 3
v -11 1 5
v -11 1 3
v -9 0 -0
v -9 0 -2
v -9 1 -0
v -9 1 -2
v -7 0 15
v -7 0 14
v -7 0 -6
v -7 0 -7
v -7 0 -14
v -7 0 -18
v -7 1 15
v -7 1 14
v -7 1 -6
v -7 1 -7
v -7 1 -14
v -7 1 -18
v -4 0 12
v -4 0 10
v -4 1 12
v -4 1 10
v -2 0 5
v -2 0 4
v -2 1 5
v -2 1 4
v 1 0 -3
v 1 0 -6
v 1 1 -3
v 1 1 -6
v 4 0 14
v 4 0 13
v 4 1 14
v 4 1 13
v 5 0 -10
v 5 0 -12
v 5 0 -18
v 5 0 -19
v 5 1 -10
v 5 1 -12
v 5 1 -18
v 5 1 -19
v 6 0 9
v 6 0 5
v 6 1 9
v 6 1 5
v 7 0 1
v 7 0 -0
v 7 0 -1
v 7 0 -2
v 7 1 1
v 7 1 -0
v 7 1 -1
v 7 1 -2
v 9 0 -0
v 9 0 -1
v 9 1 -0
v 9 1 -1
v 11 0 10
v 11 0 7
v 11 1 10
v 11 1 7
v 12 0 18
v 12 0 17
v 12 0 -5
v 12 0 -12
v 12 1 18
v 12 1 17
v 12 1 -5
v 12 1 -12
v 16 0 12
v 16 0 8
v 16 1 12
v 16 1 8
v 17 0 4
v 17 0 2
v 17 0 -15
v 17 0 -17
v 17 1 4
v 17 1 2
v 17 1 -15
v 17 1 -17
v -17 0 17
v -17 0 13
v -17 1 17
v -17 1 13
v -16 0 -7
v -16 0 -8
v -16 1 -7
v -16 1 -8
v -15 0 10
v -15 0 9
v -15 1 10
v -15 1 9
v -14 0 9
v -14 0 7
v -14 0 5
v -14 0 3
v -14 0 -8
v -14 0 -11
v -14 1 9
v -14 1 7
v -14 1 5
v -14 1 3
v -14 1 -8
v -14 1 -11
v -11 0 -0
v -11 0 -2
v -11 1 -0
v -11 1 -2
v -10 0 -14
v -10 0 -18
v -10 1 -14
v -10 1 -18
v -8 0 15
v -8 0 14
v -8 0 -6
v -8 0 -7
v -8 1 15
v -8 1 14
v -8 1 -6
v -8 1 -7
v -6 0 5
v -6 0 4
v -6 1 5
v -6 1 4
v -5 0 12
v -5 0 10
v -5 1 12
v -5 1 10
v -2 0 -3
v -2 0 -6
v -2 1 -3
v -2 1 -6
v 0 0 -18
v 0 0 -19
v 0 1 -18
v 0 1 -19
v 3 0 14
v 3 0 13
v 3 0 9
v 3 0 5
v 3 1 14
v 3 1 13
v 3 1 9
v 3 1 5
v 4 0 18
v 4 0 17
v 4 0 -10
v 4 0 -12
v 4 1 18
v 4 1 17
v 4 1 -10
v 4 1 -12
v 5 0 1
v 5 0 -2
v 5 1 1
v 5 1 -2
v 10 0 10
v 10 0 7
v 10 0 -9
v 10 0 -12
v 10 1 10
v 10 1 7
v 10 1 -9
v 10 1 -12
v 11 0 -5
v 11 0 -9
v 11 1 -5
v 11 1 -9
v 12 0 4
v 12 0 2
v 12 1 4
v 12 1 2
v 14 0 12
v 14 0 8
v 14 1 12
v 14 1 8
v 16 0 -15
v 16 0 -17
v 16 1 -15
v 16 1 -17
v 18 0 -4
v 18 0 -9
v 18 1 -4
v 18 1 -9
v 20 0 20
v 20 0 -4
v 20 0 -9
v 20 0 -20
v 20 1 -4
v 20 1 -9
v 20 2 20
v 20 2 -4
v 20 2 -9
v 20 2 -20
v -20 0 20
v -20 2 20
v 20 0 20
v 20 2 20
v 4 0 17
v 4 1 17
v 12 0 17
v 12 1 17
v -8 0 14
v -8 1 14
v -7 0 14
v -7 1 14
v -17 0 13
v -17 1 13
v -16 0 13
v -16 1 13
v 3 0 13
v 3 1 13
v 4 0 13
v 4 1 13
v -5 0 10
v -5 1 10
v -4 0 10
v -4 1 10
v -15 0 9
v -15 1 9
v -14 0 9
v -14 1 9
v 14 0 8
v 14 1 8
v 16 0 8
v 16 1 8
v -14 0 7
v -14 1 7
v -13 0 7
v -13 1 7
v 10 0 7
v 10 1 7
v 11 0 7
v 11 1 7
v 3 0 5
v 3 1 5
v 6 0 5
v 6 1 5
v -6 0 4
v -6 1 4
v -2 0 4
v -2 1 4
v -14 0 3
v -14 1 3
v -11 0 3
v -11 1 3
v 12 0 2
v 12 1 2
v 17 0 2
v 17 1 2
v 7 0 -1
v 7 1 -1
v 9 0 -1
v 9 1 -1
v -11 0 -2
v -11 1 -2
v -9 0 -2
v -9 1 -2
v 5 0 -2
v 5 1 -2
v 7 0 -2
v 7 1 -2
v -2 0 -6
v -2 1 -6
v 1 0 -6
v 1 1 -6
v -8 0 -7
v -8 1 -7
v -7 0 -7
v -7 1 -7
v -16 0 -8
v -16 1 -8
v -14 0 -8
v -14 1 -8
v 18 0 -9
v 18 1 -9
v 20 0 -9
v 20 1 -9
v -14 0 -11
v -14 1 -11
v -12 0 -11
v -12 1 -11
v 4 0 -12
v 4 1 -12
v 5 0 -12
v 5 1 -12
v 10 0 -12
v 10 1 -12
v 12 0 -12
v 12 1 -12
v 16 0 -17
v 16 1 -17
v 17 0 -17
v 17 1 -17
v -10 0 -18
v -10 1 -18
v -7 0 -18
v -7 1 -18
v 0 0 -19
v 0 1 -19
v 5 0 -19
v 5 1 -19
v 4 0 18
v 4 1 18
v 12 0 18
v 12 1 18
v -17 0 17
v -17 1 17
v -16 0 17
v -16 1 17
v -8 0 15
v -8 1 15
v -7 0 15
v -7 1 15
v 3 0 14
v 3 1 14
v 4 0 14
v 4 1 14
v -5 0 12
v -5 1 12
v -4 0 12
v -4 1 12
v 14 0 12
v 14 1 12
v 16 0 12
v 16 1 12
v -15 0 10
v -15 1 10
v -13 0 10
v -13 1 10
v 10 0 10
v 10 1 10
v 11 0 10
v 11 1 10
v 3 0 9
v 3 1 9
v 6 0 9
v 6 1 9
v -14 0 5
v -14 1 5
v -11 0 5
v -11 1 5
v -6 0 5
v -6 1 5
v -2 0 5
v -2 1 5
v 12 0 4
v 12 1 4
v 17 0 4
v 17 1 4
v 5 0 1
v 5 1 1
v 7 0 1
v 7 1 1
v -11 0 -0
v -11 1 -0
v -9 0 -0
v -9 1 -0
v 7 0 -0
v 7 1 -0
v 9 0 -0
v 9 1 -0
v -2 0 -3
v -2 1 -3
v 1 0 -3
v 1 1 -3
v 18 0 -4
v 18 1 -4
v 20 0 -4
v 20 1 -4
v 11 0 -5
v 11 1 -5
v 12 0 -5
v 12 1 -5
v -8 0 -6
v -8 1 -6
v -7 0 -6
v -7 1 -6
v -16 0 -7
v -16 1 -7
v -12 0 -7
v -12 1 -7
v 10 0 -9
v 10 1 -9
v 11 0 -9
v 11 1 -9
v 4 0 -10
v 4 1 -10
v 5 0 -10
v 5 1 -10
v -10 0 -14
v -10 1 -14
v -7 0 -14
v -7 1 -14
v 16 0 -15
v 16 1 -15
v 17 0 -15
v 17 1 -15
v 0 0 -18
v 0 1 -18
v 5 0 -18
v 5 1 -18
v -20 0 -20
v -20 2 -20
v 20 0 -20
v 20 2 -20
v -20 0 20
v 20 0 20
v 4 0 18
v 12 0 18
v -17 0 17
v -16 0 17
v 4 0 17
v 12 0 17
v -8 0 15
v -7 0 15
v -8 0 14
v -7 0 14
v 3 0 14
v 4 0 14
v -17 0 13
v -16 0 13
v 3 0 13
v 4 0 13
v -5 0 12
v -4 0 12
v 14 0 12
v 16 0 12
v -15 0 10
v -13 0 10
v -5 0 10
v -4 0 10
v 10 0 10
v 11 0 10
v -15 0 9
v -14 0 9
v 3 0 9
v 6 0 9
v 14 0 8
v 16 0 8
v -14 0 7
v -13 0 7
v 10 0 7
v 11 0 7
v -14 0 5
v -11 0 5
v -6 0 5
v -2 0 5
v 3 0 5
v 6 0 5
v -6 0 4
v -2 0 4
v 12 0 4
v 17 0 4
v -14 0 3
v -11 0 3
v 12 0 2
v 17 0 2
v 5 0 1
v 7 0 1
v -11 0 -0
v -9 0 -0
v 7 0 -0
v 9 0 -0
v 7 0 -1
v 9 0 -1
v -11 0 -2
v -9 0 -2
v 5 0 -2
v 7 0 -2
v -2 0 -3
v 1 0 -3
v 18 0 -4
v 20 0 -4
v 11 0 -5
v 12 0 -5
v -8 0 -6
v -7 0 -6
v -2 0 -6
v 1 0 -6
v -16 0 -7
v -12 0 -7
v -8 0 -7
v -7 0 -7
v -16 0 -8
v -14 0 -8
v 10 0 -9
v 11 0 -9
v 18 0 -9
v 20 0 -9
v 4 0 -10
v 5 0 -10
v -14 0 -11
v -12 0 -11
v 4 0 -12
v 5 0 -12
v 10 0 -12
v 12 0 -12
v -10 0 -14
v -7 0 -14
v 16 0 -15
v 17 0 -15
v 16 0 -17
v 17 0 -17
v -10 0 -18
v -7 0 -18
v 0 0 -18
v 5 0 -18
v 0 0 -19
v 5 0 -19
v -20 0 -20
v 20 0 -20
v 4 1 18
v 12 1 18
v -17 1 17
v -16 1 17
v 4 1 17
v 12 1 17
v -8 1 15
v -7 1 15
v -8 1 14
v -7 1 14
v 3 1 14
v 4 1 14
v -17 1 13
v -16 1 13
v 3 1 13
v 4 1 13
v -5 1 12
v -4 1 12
v 14 1 12
v 16 1 12
v -15 1 10
v -13 1 10
v -5 1 10
v -4 1 10
v 10 1 10
v 11 1 10
v -15 1 9
v -14 1 9
v 3 1 9
v 6 1 9
v 14 1 8
v 16 1 8
v -14 1 7
v -13 1 7
v 10 1 7
v 11 1 7
v -14 1 5
v -11 1 5
v -6 1 5
v -2 1 5
v 3 1 5
v 6 1 5
v -6 1 4
v -2 1 4
v 12 1 4
v 17 1 4
v -14 1 3
v -11 1 3
v 12 1 2
v 17 1 2
v 5 1 1
v 7 1 1
v -11 1 -0
v -9 1 -0
v 7 1 -0
v 9 1 -0
v 7 1 -1
v 9 1 -1
v -11 1 -2
v -9 1 -2
v 5 1 -2
v 7 1 -2
v -2 1 -3
v 1 1 -3
v 18 1 -4
v 20 1 -4
v 11 1 -5
v 12 1 -5
v -8 1 -6
v -7 1 -6
v -2 1 -6
v 1 1 -6
v -16 1 -7
v -12 1 -7
v -8 1 -7
v -7 1 -7
v -16 1 -8
v -14 1 -8
v 10 1 -9
v 11 1 -9
v 18 1 -9
v 20 1 -9
v 4 1 -10
v 5 1 -10
v -14 1 -11
v -12 1 -11
v 4 1 -12
v 5 1 -12
v 10 1 -12
v 12 1 -12
v -10 1 -14
v -7 1 -14
v 16 1 -15
v 17 1 -15
v 16 1 -17
v 17 1 -17
v -10 1 -18
v -7 1 -18
v 0 1 -18
v 5 1 -18
v 0 1 -19
v 5 1 -19
v -20 2 20
v 20 2 20
v 4 2 18
v 12 2 18
v -17 2 17
v -16 2 17
v 4 2 17
v 12 2 17
v -8 2 15
v -7 2 15
v -8 2 14
v -7 2 14
v 3 2 14
v 4 2 14
v -17 2 13
v -16 2 13
v 3 2 13
v 4 2 13
v -5 2 12
v -4 2 12
v 14 2 12
v 16 2 12
v -15 2 10
v -13 2 10
v -5 2 10
v -4 2 10
v 10 2 10
v 11 2 10
v -15 2 9
v -14 2 9
v 3 2 9
v 6 2 9
v 14 2 8
v 16 2 8
v -14 2 7
v -13 2 7
v 10 2 7
v 11 2 7
v -14 2 5
v -11 2 5
v -6 2 5
v -2 2 5
v 3 2 5
v 6 2 5
v -6 2 4
v -2 2 4
v 12 2 4
v 17 2 4
v -14 2 3
v -11 2 3
v 12 2 2
v 17 2 2
v 5 2 1
v 7 2 1
v -11 2 -0
v -9 2 -0
v 7 2 -0
v 9 2 -0
v 7 2 -1
v 9 2 -1
v -11 2 -2
v -9 2 -2
v 5 2 -2
v 7 2 -2
v -2 2 -3
v 1 2 -3
v 18 2 -4
v 20 2 -4
v 11 2 -5
v 12 2 -5
v -8 2 -6
v -7 2 -6
v -2 2 -6
v 1 2 -6
v -16 2 -7
v -12 2 -7
v -8 2 -7
v -7 2 -7
v -16 2 -8
v -14 2 -8
v 10 2 -9
v 11 2 -9
v 18 2 -9
v 20 2 -9
v 4 2 -10
v 5 2 -10
v -14 2 -11
v -12 2 -11
v 4 2 -12
v 5 2 -12
v 10 2 -12
v 12 2 -12
v -10 2 -14
v -7 2 -14
v 16 2 -15
v 17 2 -15
v 16 2 -17
v 17 2 -17
v -10 2 -18
v -7 2 -18
v 0 2 -18
v 5 2 -18
v 0 2 -19
v 5 2 -19
v -20 2 -20
v 20 2 -20

# faces
f 3/1/1 2/1/1 1/1/1
f 4/1/1 2/1/1 3/1/1
f 7/1/1 6/1/1 5/1/1
f 8/1/1 6/1/1 7/1/1
f 11/1/1 10/1/1 9/1/1
f 12/1/1 10/1/1 11/1/1
f 15/1/1 14/1/1 13/1/1
f 16/1/1 14/1/1 15/1/1
f 19/1/1 18/1/1 17/1/1
f 20/1/1 18/1/1 19/1/1
f 23/1/1 22/1/1 21/1/1
f 24/1/1 22/1/1 23/1/1
f 31/1/1 26/1/1 25/1/1
f 32/1/1 26/1/1 31/1/1
f 33/1/1 28/1/1 27/1/1
f 34/1/1 28/1/1 33/1/1
f 35/1/1 30/1/1 29/1/1
f 36/1/1 30/1/1 35/1/1
f 39/1/1 38/1/1 37/1/1
f 40/1/1 38/1/1 39/1/1
f 43/1/1 42/1/1 41/1/1
f 44/1/1 42/1/1 43/1/1
f 47/1/1 46/1/1 45/1/1
f 48/1/1 46/1/1 47/1/1
f 51/1/1 50/1/1 49/1/1
f 52/1/1 50/1/1 51/1/1
f 57/1/1 54/1/1 53/1/1
f 58/1/1 54/1/1 57/1/1
f 59/1/1 56/1/1 55/1/1
f 60/1/1 56/1/1 59/1/1
f 63/1/1 62/1/1 61/1/1
f 64/1/1 62/1/1 63/1/1
f 69/1/1 66/1/1 65/1/1
f 70/1/1 66/1/1 69/1/1
f 71/1/1 68/1/1 67/1/1
f 72/1/1 68/1/1 71/1/1
f 75/1/1 74/1/1 73/1/1
f 76/1/1 74/1/1 75/1/1
f 79/1/1 78/1/1 77/1/1
f 80/1/1 78/1/1 79/1/1
f 85/1/1 82/1/1 81/1/1
f 86/1/1 82/1/1 85/1/1
f 87/1/1 84/1/1 83/1/1
f 88/1/1 84/1/1 87/1/1
f 91/1/1 90/1/1 89/1/1
f 92/1/1 90/1/1 91/1/1
f 97/1/1 94/1/1 93/1/1
f 98/1/1 94/1/1 97/1/1
f 99/1/1 96/1/1 95/1/1
f 100/1/1 96/1/1 99/1/1
f 101/1/2 102/1/2 103/1/2
f 103/1/2 102/1/2 104/1/2
f 105/1/2 106/1/2 107/1/2
f 107/1/2 106/1/2 108/1/2
f 109/1/2 110/1/2 111/1/2
f 111/1/2 110/1/2 112/1/2
f 113/1/2 114/1/2 119/1/2
f 119/1/2 114/1/2 120/1/2
f 115/1/2 116/1/2 121/1/2
f 121/1/2 116/1/2 122/1/2
f 117/1/2 118/1/2 123/1/2
f 123/1/2 118/1/2 124/1/2
f 125/1/2 126/1/2 127/1/2
f 127/1/2 126/1/2 128/1/2
f 129/1/2 130/1/2 131/1/2
f 131/1/2 130/1/2 132/1/2
f 133/1/2 134/1/2 137/1/2
f 137/1/2 134/1/2 138/1/2
f 135/1/2 136/1/2 139/1/2
f 139/1/2 136/1/2 140/1/2
f 141/1/2 142/1/2 143/1/2
f 143/1/2 142/1/2 144/1/2
f 145/1/2 146/1/2 147/1/2
f 147/1/2 146/1/2 148/1/2
f 149/1/2 150/1/2 151/1/2
f 151/1/2 150/1/2 152/1/2
f 153/1/2 154/1/2 155/1/2
f 155/1/2 154/1/2 156/1/2
f 157/1/2 158/1/2 161/1/2
f 161/1/2 158/1/2 162/1/2
f 159/1/2 160/1/2 163/1/2
f 163/1/2 160/1/2 164/1/2
f 165/1/2 166/1/2 169/1/2
f 169/1/2 166/1/2 170/1/2
f 167/1/2 168/1/2 171/1/2
f 171/1/2 168/1/2 172/1/2
f 173/1/2 174/1/2 175/1/2
f 175/1/2 174/1/2 176/1/2
f 177/1/2 178/1/2 181/1/2
f 181/1/2 178/1/2 182/1/2
f 179/1/2 180/1/2 183/1/2
f 183/1/2 180/1/2 184/1/2
f 185/1/2 186/1/2 187/1/2
f 187/1/2 186/1/2 188/1/2
f 189/1/2 190/1/2 191/1/2
f 191/1/2 190/1/2 192/1/2
f 193/1/2 194/1/2 195/1/2
f 195/1/2 194/1/2 196/1/2
f 197/1/2 198/1/2 199/1/2
f 199/1/2 198/1/2 200/1/2
f 201/1/2 202/1/2 203/1/2
f 203/1/2 202/1/2 204/1/2
f 205/1/2 206/1/2 209/1/2
f 207/1/2 208/1/2 210/1/2
f 205/1/2 209/1/2 211/1/2
f 209/2/2 210/2/2 212/2/2
f 211/1/2 209/1/2 212/1/2
f 210/1/2 208/1/2 213/1/2
f 212/2/2 210/2/2 213/2/2
f 213/1/2 208/1/2 214/1/2
f 217/1/3 216/1/3 215/1/3
f 218/1/3 216/1/3 217/1/3
f 221/1/3 220/1/3 219/1/3
f 222/1/3 220/1/3 221/1/3
f 225/1/3 224/1/3 223/1/3
f 226/1/3 224/1/3 225/1/3
f 229/1/3 228/1/3 227/1/3
f 230/1/3 228/1/3 229/1/3
f 233/1/3 232/1/3 231/1/3
f 234/1/3 232/1/3 233/1/3
f 237/1/3 236/1/3 235/1/3
f 238/1/3 236/1/3 237/1/3
f 241/1/3 240/1/3 239/1/3
f 242/1/3 240/1/3 241/1/3
f 245/1/3 244/1/3 243/1/3
f 246/1/3 244/1/3 245/1/3
f 249/1/3 248/1/3 247/1/3
f 250/1/3 248/1/3 249/1/3
f 253/1/3 252/1/3 251/1/3
f 254/1/3 252/1/3 253/1/3
f 257/1/3 256/1/3 255/1/3
f 258/1/3 256/1/3 257/1/3
f 261/1/3 260/1/3 259/1/3
f 262/1/3 260/1/3 261/1/3
f 265/1/3 264/1/3 263/1/3
f 266/1/3 264/1/3 265/1/3
f 269/1/3 268/1/3 267/1/3
f 270/1/3 268/1/3 269/1/3
f 273/1/3 272/1/3 271/1/3
f 274/1/3 272/1/3 273/1/3
f 277/1/3 276/1/3 275/1/3
f 278/1/3 276/1/3 277/1/3
f 281/1/3 280/1/3 279/1/3
f 282/1/3 280/1/3 281/1/3
f 285/1/3 284/1/3 283/1/3
f 286/1/3 284/1/3 285/1/3
f 289/1/3 288/1/3 287/1/3
f 290/1/3 288/1/3 289/1/3
f 293/1/3 292/1/3 291/1/3
f 294/1/3 292/1/3 293/1/3
f 297/1/3 296/1/3 295/1/3
f 298/1/3 296/1/3 297/1/3
f 301/1/3 300/1/3 299/1/3
f 302/1/3 300/1/3 301/1/3
f 305/1/3 304/1/3 303/1/3
f 306/1/3 304/1/3 305/1/3
f 309/1/3 308/1/3 307/1/3
f 310/1/3 308/1/3 309/1/3
f 313/1/3 312/1/3 311/1/3
f 314/1/3 312/1/3 313/1/3
f 317/1/3 316/1/3 315/1/3
f 318/1/3 316/1/3 317/1/3
f 321/1/3 320/1/3 319/1/3
f 322/1/3 320/1/3 321/1/3
f 323/1/4 324/1/4 325/1/4
f 325/1/4 324/1/4 326/1/4
f 327/1/4 328/1/4 329/1/4
f 329/1/4 328/1/4 330/1/4
f 331/1/4 332/1/4 333/1/4
f 333/1/4 332/1/4 334/1/4
f 335/1/4 336/1/4 337/1/4
f 337/1/4 336/1/4 338/1/4
f 339/1/4 340/1/4 341/1/4
f 341/1/4 340/1/4 342/1/4
f 343/1/4 344/1/4 345/1/4
f 345/1/4 344/1/4 346/1/4
f 347/1/4 348/1/4 349/1/4
f 349/1/4 348/1/4 350/1/4
f 351/1/4 352/1/4 353/1/4
f 353/1/4 352/1/4 354/1/4
f 355/1/4 356/1/4 357/1/4
f 357/1/4 356/1/4 358/1/4
f 359/1/4 360/1/4 361/1/4
f 361/1/4 360/1/4 362/1/4
f 363/1/4 364/1/4 365/1/4
f 365/1/4 364/1/4 366/1/4
f 367/1/4 368/1/4 369/1/4
f 369/1/4 368/1/4 370/1/4
f 371/1/4 372/1/4 373/1/4
f 373/1/4 372/1/4 374/1/4
f 375/1/4 376/1/4 377/1/4
f 377/1/4 376/1/4 378/1/4
f 379/1/4 380/1/4 381/1/4
f 381/1/4 380/1/4 382/1/4
f 383/1/4 384/1/4 385/1/4
f 385/1/4 384/1/4 386/1/4
f 387/1/4 388/1/4 389/1/4
f 389/1/4 388/1/4 390/1/4
f 391/1/4 392/1/4 393/1/4
f 393/1/4 392/1/4 394/1/4
f 395/1/4 396/1/4 397/1/4
f 397/1/4 396/1/4 398/1/4
f 399/1/4 400/1/4 401/1/4
f 401/1/4 400/1/4 402/1/4
f 403/1/4 404/1/4 405/1/4
f 405/1/4 404/1/4 406/1/4
f 407/1/4 408/1/4 409/1/4
f 409/1/4 408/1/4 410/1/4
f 411/1/4 412/1/4 413/1/4
f 413/1/4 412/1/4 414/1/4
f 415/1/4 416/1/4 417/1/4
f 417/1/4 416/1/4 418/1/4
f 419/1/4 420/1/4 421/1/4
f 421/1/4 420/1/4 422/1/4
f 423/1/4 424/1/4 425/1/4
f 425/1/4 424/1/4 426/1/4
f 429/1/5 428/1/5 427/1/5
f 430/1/5 428/1/5 429/1/5
f 431/1/5 429/1/5 427/1/5
f 432/1/5 429/1/5 431/1/5
f 433/1/5 429/1/5 432/1/5
f 434/1/5 428/1/5 430/1/5
f 435/1/5 433/1/5 432/1/5
f 435/1/5 434/1/5 433/1/5
f 436/1/5 434/1/5 435/1/5
f 437/1/5 435/1/5 432/1/5
f 438/1/5 434/1/5 436/1/5
f 439/1/5 434/1/5 438/1/5
f 440/1/5 434/1/5 439/1/5
f 441/1/5 431/1/5 427/1/5
f 442/1/5 437/1/5 432/1/5
f 442/1/5 438/1/5 437/1/5
f 442/1/5 439/1/5 438/1/5
f 443/1/5 439/1/5 442/1/5
f 444/1/5 434/1/5 440/1/5
f 445/1/5 443/1/5 442/1/5
f 445/1/5 444/1/5 443/1/5
f 445/1/5 442/1/5 441/1/5
f 446/1/5 444/1/5 445/1/5
f 447/1/5 428/1/5 434/1/5
f 447/1/5 444/1/5 446/1/5
f 447/1/5 434/1/5 444/1/5
f 448/1/5 428/1/5 447/1/5
f 449/1/5 445/1/5 441/1/5
f 450/1/5 445/1/5 449/1/5
f 451/1/5 445/1/5 450/1/5
f 452/1/5 447/1/5 446/1/5
f 453/1/5 447/1/5 452/1/5
f 454/1/5 447/1/5 453/1/5
f 455/1/5 449/1/5 441/1/5
f 457/1/5 451/1/5 450/1/5
f 457/1/5 453/1/5 452/1/5
f 457/1/5 452/1/5 451/1/5
f 458/1/5 453/1/5 457/1/5
f 459/1/5 447/1/5 454/1/5
f 460/1/5 428/1/5 448/1/5
f 461/1/5 456/1/5 455/1/5
f 462/1/5 457/1/5 450/1/5
f 463/1/5 453/1/5 458/1/5
f 464/1/5 459/1/5 454/1/5
f 464/1/5 460/1/5 459/1/5
f 465/1/5 462/1/5 461/1/5
f 465/1/5 461/1/5 455/1/5
f 466/1/5 457/1/5 462/1/5
f 466/1/5 462/1/5 465/1/5
f 467/1/5 457/1/5 466/1/5
f 468/1/5 457/1/5 467/1/5
f 469/1/5 457/1/5 468/1/5
f 470/1/5 463/1/5 458/1/5
f 470/1/5 464/1/5 463/1/5
f 471/1/5 467/1/5 466/1/5
f 472/1/5 469/1/5 468/1/5
f 472/1/5 470/1/5 469/1/5
f 473/1/5 460/1/5 464/1/5
f 473/1/5 464/1/5 470/1/5
f 473/1/5 470/1/5 472/1/5
f 474/1/5 428/1/5 460/1/5
f 474/1/5 460/1/5 473/1/5
f 475/1/5 465/1/5 455/1/5
f 476/1/5 471/1/5 466/1/5
f 476/1/5 472/1/5 471/1/5
f 476/1/5 473/1/5 472/1/5
f 477/1/5 473/1/5 476/1/5
f 477/1/5 476/1/5 475/1/5
f 478/1/5 428/1/5 474/1/5
f 479/1/5 477/1/5 475/1/5
f 479/1/5 478/1/5 477/1/5
f 480/1/5 478/1/5 479/1/5
f 481/1/5 479/1/5 475/1/5
f 482/1/5 479/1/5 481/1/5
f 483/1/5 478/1/5 480/1/5
f 484/1/5 478/1/5 483/1/5
f 486/1/5 478/1/5 484/1/5
f 487/1/5 481/1/5 475/1/5
f 488/1/5 479/1/5 482/1/5
f 489/1/5 479/1/5 488/1/5
f 490/1/5 486/1/5 485/1/5
f 491/1/5 489/1/5 488/1/5
f 491/1/5 490/1/5 489/1/5
f 491/1/5 488/1/5 487/1/5
f 492/1/5 490/1/5 491/1/5
f 493/1/5 428/1/5 478/1/5
f 493/1/5 490/1/5 492/1/5
f 493/1/5 486/1/5 490/1/5
f 493/1/5 478/1/5 486/1/5
f 494/1/5 428/1/5 493/1/5
f 495/1/5 493/1/5 492/1/5
f 496/1/5 493/1/5 495/1/5
f 497/1/5 491/1/5 487/1/5
f 498/1/5 491/1/5 497/1/5
f 499/1/5 491/1/5 498/1/5
f 500/1/5 495/1/5 492/1/5
f 501/1/5 475/1/5 455/1/5
f 501/1/5 455/1/5 441/1/5
f 501/1/5 487/1/5 475/1/5
f 501/1/5 497/1/5 487/1/5
f 502/1/5 497/1/5 501/1/5
f 503/1/5 497/1/5 502/1/5
f 504/1/5 500/1/5 499/1/5
f 504/1/5 499/1/5 498/1/5
f 505/1/5 501/1/5 441/1/5
f 507/1/5 503/1/5 502/1/5
f 507/1/5 495/1/5 500/1/5
f 507/1/5 504/1/5 503/1/5
f 507/1/5 500/1/5 504/1/5
f 508/1/5 495/1/5 507/1/5
f 509/1/5 493/1/5 496/1/5
f 511/1/5 507/1/5 502/1/5
f 512/1/5 507/1/5 511/1/5
f 513/1/5 506/1/5 505/1/5
f 514/1/5 511/1/5 502/1/5
f 515/1/5 511/1/5 514/1/5
f 515/1/5 514/1/5 513/1/5
f 516/1/5 507/1/5 512/1/5
f 517/1/5 507/1/5 516/1/5
f 518/1/5 510/1/5 509/1/5
f 518/1/5 509/1/5 496/1/5
f 519/1/5 515/1/5 513/1/5
f 519/1/5 518/1/5 517/1/5
f 519/1/5 517/1/5 516/1/5
f 519/1/5 516/1/5 515/1/5
f 520/1/5 518/1/5 519/1/5
f 521/1/5 510/1/5 518/1/5
f 521/1/5 518/1/5 520/1/5
f 522/1/5 510/1/5 521/1/5
f 523/1/5 521/1/5 520/1/5
f 524/1/5 510/1/5 522/1/5
f 525/1/5 519/1/5 513/1/5
f 526/1/5 524/1/5 523/1/5
f 526/1/5 523/1/5 520/1/5
f 527/1/5 524/1/5 526/1/5
f 528/1/5 524/1/5 527/1/5
f 529/1/5 526/1/5 525/1/5
f 529/1/5 527/1/5 526/1/5
f 530/1/5 524/1/5 528/1/5
f 531/1/5 525/1/5 513/1/5
f 531/1/5 530/1/5 529/1/5
f 531/1/5 441/1/5 427/1/5
f 531/1/5 505/1/5 441/1/5
f 531/1/5 529/1/5 525/1/5
f 531/1/5 513/1/5 505/1/5
f 532/1/5 524/1/5 530/1/5
f 532/1/5 530/1/5 531/1/5
f 532/1/5 510/1/5 524/1/5
f 537/2/5 534/2/5 533/2/5
f 538/2/5 534/2/5 537/2/5
f 541/2/5 540/2/5 539/2/5
f 542/2/5 540/2/5 541/2/5
f 545/2/5 536/2/5 535/2/5
f 546/2/5 536/2/5 545/2/5
f 547/2/5 544/2/5 543/2/5
f 548/2/5 544/2/5 547/2/5
f 555/2/5 550/2/5 549/2/5
f 556/2/5 550/2/5 555/2/5
f 559/2/5 554/2/5 553/2/5
f 560/2/5 554/2/5 559/2/5
f 563/2/5 552/2/5 551/2/5
f 564/2/5 552/2/5 563/2/5
f 565/2/5 554/2/5 560/2/5
f 566/2/5 554/2/5 565/2/5
f 567/2/5 558/2/5 557/2/5
f 568/2/5 558/2/5 567/2/5
f 573/2/5 562/2/5 561/2/5
f 574/2/5 562/2/5 573/2/5
f 575/2/5 572/2/5 571/2/5
f 576/2/5 572/2/5 575/2/5
f 579/2/5 570/2/5 569/2/5
f 580/2/5 570/2/5 579/2/5
f 581/2/5 578/2/5 577/2/5
f 582/2/5 578/2/5 581/2/5
f 587/2/5 584/2/5 583/2/5
f 589/2/5 587/2/5 583/2/5
f 589/2/5 588/2/5 587/2/5
f 590/2/5 588/2/5 589/2/5
f 591/2/5 586/2/5 585/2/5
f 592/2/5 586/2/5 591/2/5
f 593/2/5 589/2/5 583/2/5
f 594/2/5 589/2/5 593/2/5
f 603/2/5 596/2/5 595/2/5
f 604/2/5 596/2/5 603/2/5
f 607/2/5 602/2/5 601/2/5
f 608/2/5 602/2/5 607/2/5
f 609/2/5 606/2/5 605/2/5
f 610/2/5 606/2/5 609/2/5
f 612/2/5 600/2/5 599/2/5
f 613/2/5 598/2/5 597/2/5
f 614/2/5 598/2/5 613/2/5
f 617/2/5 606/2/5 610/2/5
f 618/2/5 606/2/5 617/2/5
f 619/2/5 616/2/5 615/2/5
f 620/2/5 616/2/5 619/2/5
f 621/2/5 612/2/5 611/2/5
f 622/2/5 600/2/5 612/2/5
f 622/2/5 612/2/5 621/2/5
f 627/2/5 626/2/5 625/2/5
f 628/2/5 626/2/5 627/2/5
f 629/2/5 624/2/5 623/2/5
f 630/2/5 624/2/5 629/2/5
f 633/2/5 632/2/5 631/2/5
f 634/2/5 632/2/5 633/2/5
f 635/1/6 636/1/6 637/1/6
f 637/1/6 636/1/6 638/1/6
f 635/1/6 637/1/6 639/1/6
f 639/1/6 637/1/6 640/1/6
f 637/2/6 638/2/6 641/2/6
f 640/1/6 637/1/6 641/1/6
f 638/1/6 636/1/6 642/1/6
f 641/2/6 638/2/6 642/2/6
f 640/1/6 641/1/6 643/1/6
f 641/1/6 642/1/6 643/1/6
f 643/1/6 642/1/6 644/1/6
f 640/1/6 643/1/6 645/1/6
f 643/2/6 644/2/6 645/2/6
f 644/1/6 642/1/6 646/1/6
f 645/2/6 644/2/6 646/2/6
f 646/1/6 642/1/6 647/1/6
f 647/1/6 642/1/6 648/1/6
f 639/2/6 640/2/6 649/2/6
f 635/1/6 639/1/6 649/1/6
f 640/1/6 645/1/6 650/1/6
f 649/2/6 640/2/6 650/2/6
f 645/1/6 646/1/6 650/1/6
f 646/1/6 647/1/6 650/1/6
f 647/2/6 648/2/6 651/2/6
f 650/1/6 647/1/6 651/1/6
f 648/1/6 642/1/6 652/1/6
f 651/2/6 648/2/6 652/2/6
f 650/1/6 651/1/6 653/1/6
f 649/1/6 650/1/6 653/1/6
f 651/1/6 652/1/6 653/1/6
f 653/1/6 652/1/6 654/1/6
f 642/1/6 636/1/6 655/1/6
f 654/1/6 652/1/6 655/1/6
f 652/1/6 642/1/6 655/1/6
f 655/1/6 636/1/6 656/1/6
f 649/1/6 653/1/6 657/1/6
f 657/1/6 653/1/6 658/1/6
f 653/2/6 654/2/6 659/2/6
f 658/1/6 653/1/6 659/1/6
f 654/1/6 655/1/6 660/1/6
f 659/2/6 654/2/6 660/2/6
f 660/1/6 655/1/6 661/1/6
f 661/1/6 655/1/6 662/1/6
f 657/2/6 658/2/6 663/2/6
f 649/1/6 657/1/6 663/1/6
f 663/2/6 658/2/6 664/2/6
f 658/1/6 659/1/6 665/1/6
f 659/1/6 660/1/6 665/1/6
f 660/1/6 661/1/6 665/1/6
f 665/1/6 661/1/6 666/1/6
f 662/1/6 655/1/6 667/1/6
f 655/2/6 656/2/6 667/2/6
f 656/1/6 636/1/6 668/1/6
f 667/2/6 656/2/6 668/2/6
f 664/2/6 658/2/6 669/2/6
f 663/1/6 664/1/6 669/1/6
f 658/1/6 665/1/6 670/1/6
f 669/2/6 658/2/6 670/2/6
f 666/1/6 661/1/6 671/1/6
f 661/2/6 662/2/6 671/2/6
f 662/1/6 667/1/6 672/1/6
f 671/2/6 662/2/6 672/2/6
f 667/1/6 668/1/6 672/1/6
f 669/1/6 670/1/6 673/1/6
f 663/1/6 669/1/6 673/1/6
f 670/1/6 665/1/6 674/1/6
f 673/1/6 670/1/6 674/1/6
f 674/1/6 665/1/6 675/1/6
f 675/1/6 665/1/6 676/1/6
f 665/2/6 666/2/6 677/2/6
f 676/1/6 665/1/6 677/1/6
f 666/1/6 671/1/6 678/1/6
f 677/2/6 666/2/6 678/2/6
f 671/1/6 672/1/6 678/1/6
f 675/2/6 676/2/6 679/2/6
f 674/1/6 675/1/6 679/1/6
f 676/1/6 677/1/6 680/1/6
f 679/2/6 676/2/6 680/2/6
f 677/1/6 678/1/6 680/1/6
f 678/1/6 672/1/6 681/1/6
f 680/1/6 678/1/6 681/1/6
f 672/1/6 668/1/6 681/1/6
f 668/1/6 636/1/6 682/1/6
f 681/1/6 668/1/6 682/1/6
f 663/1/6 673/1/6 683/1/6
f 673/2/6 674/2/6 683/2/6
f 674/1/6 679/1/6 684/1/6
f 683/2/6 674/2/6 684/2/6
f 680/1/6 681/1/6 684/1/6
f 679/1/6 680/1/6 684/1/6
f 681/2/6 682/2/6 685/2/6
f 684/1/6 681/1/6 685/1/6
f 683/1/6 684/1/6 685/1/6
f 682/1/6 636/1/6 686/1/6
f 685/2/6 682/2/6 686/2/6
f 683/1/6 685/1/6 687/1/6
f 685/1/6 686/1/6 687/1/6
f 687/1/6 686/1/6 688/1/6
f 683/1/6 687/1/6 689/1/6
f 689/1/6 687/1/6 690/1/6
f 688/1/6 686/1/6 691/1/6
f 687/2/6 688/2/6 691/2/6
f 691/1/6 686/1/6 692/1/6
f 687/2/6 691/2/6 693/2/6
f 691/2/6 692/2/6 693/2/6
f 692/1/6 686/1/6 694/1/6
f 693/2/6 692/2/6 694/2/6
f 689/2/6 690/2/6 695/2/6
f 683/1/6 689/1/6 695/1/6
f 690/1/6 687/1/6 696/1/6
f 695/2/6 690/2/6 696/2/6
f 687/2/6 693/2/6 697/2/6
f 696/1/6 687/1/6 697/1/6
f 693/1/6 694/1/6 698/1/6
f 697/2/6 693/2/6 698/2/6
f 696/1/6 697/1/6 699/1/6
f 695/1/6 696/1/6 699/1/6
f 697/1/6 698/1/6 699/1/6
f 699/1/6 698/1/6 700/1/6
f 686/1/6 636/1/6 701/1/6
f 700/1/6 698/1/6 701/1/6
f 694/1/6 686/1/6 701/1/6
f 698/1/6 694/1/6 701/1/6
f 701/1/6 636/1/6 702/1/6
f 700/1/6 701/1/6 703/1/6
f 703/1/6 701/1/6 704/1/6
f 695/1/6 699/1/6 705/1/6
f 705/1/6 699/1/6 706/1/6
f 699/2/6 700/2/6 707/2/6
f 706/1/6 699/1/6 707/1/6
f 700/1/6 703/1/6 708/1/6
f 707/2/6 700/2/6 708/2/6
f 663/1/6 683/1/6 709/1/6
f 649/1/6 663/1/6 709/1/6
f 683/1/6 695/1/6 709/1/6
f 695/1/6 705/1/6 709/1/6
f 709/1/6 705/1/6 710/1/6
f 705/2/6 706/2/6 711/2/6
f 710/1/6 705/1/6 711/1/6
f 707/1/6 708/1/6 712/1/6
f 711/2/6 706/2/6 712/2/6
f 706/1/6 707/1/6 712/1/6
f 709/2/6 710/2/6 713/2/6
f 649/1/6 709/1/6 713/1/6
f 713/2/6 710/2/6 714/2/6
f 712/1/6 708/1/6 715/1/6
f 708/1/6 703/1/6 715/1/6
f 710/1/6 711/1/6 715/1/6
f 711/1/6 712/1/6 715/1/6
f 703/2/6 704/2/6 716/2/6
f 715/1/6 703/1/6 716/1/6
f 704/1/6 701/1/6 717/1/6
f 701/2/6 702/2/6 717/2/6
f 717/2/6 702/2/6 718/2/6
f 710/1/6 715/1/6 719/1/6
f 719/1/6 715/1/6 720/1/6
f 714/2/6 710/2/6 721/2/6
f 713/1/6 714/1/6 721/1/6
f 710/1/6 719/1/6 722/1/6
f 721/2/6 710/2/6 722/2/6
f 719/2/6 720/2/6 723/2/6
f 722/1/6 719/1/6 723/1/6
f 721/1/6 722/1/6 723/1/6
f 720/1/6 715/1/6 724/1/6
f 723/2/6 720/2/6 724/2/6
f 715/2/6 716/2/6 725/2/6
f 724/1/6 715/1/6 725/1/6
f 716/2/6 704/2/6 726/2/6
f 725/2/6 716/2/6 726/2/6
f 704/1/6 717/1/6 726/1/6
f 717/1/6 718/1/6 726/1/6
f 721/1/6 723/1/6 727/1/6
f 724/1/6 725/1/6 727/1/6
f 725/1/6 726/1/6 727/1/6
f 723/1/6 724/1/6 727/1/6
f 727/1/6 726/1/6 728/1/6
f 726/1/6 718/1/6 729/1/6
f 728/1/6 726/1/6 729/1/6
f 729/1/6 718/1/6 730/1/6
f 728/1/6 729/1/6 731/1/6
f 729/2/6 730/2/6 731/2/6
f 730/1/6 718/1/6 732/1/6
f 731/2/6 730/2/6 732/2/6
f 727/2/6 728/2/6 733/2/6
f 721/1/6 727/1/6 733/1/6
f 731/1/6 732/1/6 734/1/6
f 733/2/6 728/2/6 734/2/6
f 728/1/6 731/1/6 734/1/6
f 734/1/6 732/1/6 735/1/6
f 735/1/6 732/1/6 736/1/6
f 733/1/6 734/1/6 737/1/6
f 734/1/6 735/1/6 737/1/6
f 735/2/6 736/2/6 737/2/6
f 736/1/6 732/1/6 738/1/6
f 737/2/6 736/2/6 738/2/6
f 713/1/6 721/1/6 739/1/6
f 635/1/6 649/1/6 739/1/6
f 737/1/6 738/1/6 739/1/6
f 733/1/6 737/1/6 739/1/6
f 721/1/6 733/1/6 739/1/6
f 649/1/6 713/1/6 739/1/6
f 732/1/6 718/1/6 740/1/6
f 739/1/6 738/1/6 740/1/6
f 738/1/6 732/1/6 740/1/6
